# xmcd
#
# Track frame offsets:
#	150
#	12496
#	26717
#	40042
#	49420
#	57506
#	79263
#	95799
#	110911
#	125762
#	141315
#
# Disc length: 2092 seconds
#
# Revision: 1
# Processed by: cddbd v1.4PL0 Copyright (c) Steve Scherf et al.
# Submitted via: audiograbber 1.80
#
DISCID=a8082a0b
DTITLE=Judee Sill - Judee Sill
DYEAR=1900
DGENRE=
TTITLE0=Crayon Angels
TTITLE1=Lopin' Along Thru The Cosmos
TTITLE2=Enchanted Sky Machines
TTITLE3=Abracadabra
TTITLE4=The Phantom Cowboy
TTITLE5=Ridge Rider
TTITLE6=The Archetypal Man
TTITLE7=The Lamb Ran Away With The Crown
TTITLE8=Lady-O
TTITLE9=Jesus Was A Cross-Maker
TTITLE10=My Man On Love
EXTD=Christian mystic singer-songwriter. First album. 1971
EXTT0=
EXTT1=
EXTT2=
EXTT3=
EXTT4=
EXTT5=
EXTT6=
EXTT7=
EXTT8=
EXTT9=
EXTT10=
PLAYORDER=
